<svg xmlns="http://www.w3.org/2000/svg" width="30" height="30" viewBox="0 0 30 30">
  <g fill="none" fill-rule="evenodd">
    <circle cx="15" cy="15" r="15" fill="#444"/>
    <path fill="#FFF" d="M13,6 L17,6 C18.1045695,6 19,6.8954305 19,8 L19,17 L11,17 L11,8 C11,6.8954305 11.8954305,6 13,6 Z M9,18 L21,18 C21.5522847,18 22,18.4477153 22,19 C22,19.5522847 21.5522847,20 21,20 L9,20 C8.44771525,20 8,19.5522847 8,19 C8,18.4477153 8.44771525,18 9,18 Z M10,21 L12,21 L12,24 C12,24.5522847 11.5522847,25 11,25 C10.4477153,25 10,24.5522847 10,24 L10,21 Z M18,21 L20,21 L20,24 C20,24.5522847 19.5522847,25 19,25 C18.4477153,25 18,24.5522847 18,24 L18,21 Z M9,13 C9.55228475,13 10,13.4477153 10,14 L10,17 L8,17 L8,14 C8,13.4477153 8.44771525,13 9,13 Z M21,13 C21.5522847,13 22,13.4477153 22,14 L22,17 L20,17 L20,14 C20,13.4477153 20.4477153,13 21,13 Z"/>
  </g>
</svg>
