<svg height="30" viewBox="0 0 30 30" width="30" xmlns="http://www.w3.org/2000/svg"><g fill="none" fill-rule="evenodd"><circle cx="15" cy="15" fill="#444" r="15"></circle><path d="m15 5c5.52 0 10 4.48 10 10s-4.48 10-10 10-10-4.48-10-10 4.48-10 10-10zm-2.74 3.77c-.98 2.39-2.85 4.32-5.21 5.37-.03.28-.05.57-.05.86 0 4.41 3.59 8 8 8s8-3.59 8-8c0-.79-.12-1.55-.33-2.26-.72.17-1.47.26-2.25.26-3.37 0-6.35-1.67-8.16-4.23zm-.26 5.98c.69 0 1.25.56 1.25 1.25s-.56 1.25-1.25 1.25-1.25-.56-1.25-1.25.56-1.25 1.25-1.25zm6 0c.69 0 1.25.56 1.25 1.25s-.56 1.25-1.25 1.25-1.25-.56-1.25-1.25.56-1.25 1.25-1.25zm-4.4436035-7.02246094s4.9759521 4.69519044 8.0616455 3.75244144c3.0856934-.9427491-6.618042-5.4799805-8.0616455-3.75244144z" fill="#fff" fill-rule="nonzero"></path></g></svg>