<svg xmlns="http://www.w3.org/2000/svg" width="30" height="30" viewBox="0 0 30 30">
  <g fill="none" fill-rule="evenodd">
    <circle cx="15" cy="15" r="15" fill="#444"/>
    <path fill="#FFF" fill-rule="nonzero" d="M24.9727166,18.7587328 C24.9727166,17.4503744 24.179767,16.2579734 22.9351262,15.7949961 L15.895587,13.1122006 L15.8730674,12.2258933 C17.2212117,11.845621 18.2142393,10.623378 18.2142393,9.17518851 C18.2142393,7.4243159 16.7677883,6 14.9896063,6 C14.1143736,6 12.9030791,6.66632917 12.2456801,7.64599931 C12.0811139,7.88942474 12.0663895,8.21043937 12.20757,8.46835949 C12.3483175,8.72670592 12.6211511,8.89510005 12.9195357,8.89510005 L12.9342601,8.89510005 C13.2131566,8.89510005 13.4703997,8.73992166 13.6076826,8.50075937 C13.8969728,7.99387173 14.5050019,7.64045722 14.9913386,7.64045722 C15.851847,7.64045722 16.552986,8.33193893 16.552986,9.17817271 C16.552986,10.0265381 15.851847,10.7167408 14.9913386,10.7167408 C14.9896063,10.7167408 14.9887402,10.7167408 14.987441,10.7167408 C14.7825993,10.7167408 14.5855528,10.7947563 14.4422069,10.9375716 C14.2979949,11.0812395 14.217011,11.2743599 14.2196094,11.4768591 L14.2390975,13.111348 L7.05577931,15.7949961 C5.81243775,16.2579734 5,17.4486691 5,18.7578802 L5,19.2639152 C5,20.7317151 6.16625525,22 7.6568793,22 L22.3288294,22 C23.8181543,22 25,20.7385361 25,19.2711625 L24.9727166,18.7587328 Z M23.3387467,19.2634888 C23.3387467,19.8279289 22.9004807,20.3505902 22.3279633,20.3505902 L7.6568793,20.3505902 C7.08436187,20.3505902 6.65302499,19.8279289 6.65302499,19.2634888 L6.65302499,18.7570275 C6.65302499,18.1243772 7.03932268,17.5492793 7.63955654,17.3267432 L15.0012992,14.5812795 L22.3530813,17.3267432 C22.9546144,17.5492793 23.3383136,18.1243772 23.3383136,18.7570275 L23.3383136,19.2634888 L23.3387467,19.2634888 Z"/>
  </g>
</svg>
