<svg height="30" viewBox="0 0 30 30" width="30" xmlns="http://www.w3.org/2000/svg"><g fill="none" fill-rule="evenodd"><circle cx="15" cy="15" fill="#444" r="15"></circle><path d="m19.9338602 10.0541892c-1.3705916-1.36556894-3.1629036-2.0541892-4.9669301-2.0541892v7.0029179l-4.9669301 4.9487286c2.7411831 2.731138 7.1926771 2.731138 9.9455746 0 2.7411831-2.731138 2.7411831-7.1663193-.0117144-9.8974573zm-4.9338602-6.0541892c-6.072 0-11 4.928-11 11s4.928 11 11 11 11-4.928 11-11-4.928-11-11-11zm0 20c-4.9725 0-9-4.0275-9-9s4.0275-9 9-9 9 4.0275 9 9-4.0275 9-9 9z" fill="#fff" fill-rule="nonzero"></path></g></svg>