<svg xmlns="http://www.w3.org/2000/svg" width="30" height="30" viewBox="0 0 30 30">
  <g fill="none" fill-rule="evenodd">
    <circle cx="15" cy="15" r="15" fill="#444"/>
    <path fill="#FFF" d="M15.5110224,6.1820193 C15.227378,5.93837421 14.8055856,5.93837421 14.5263502,6.18778605 L7.23689685,13.4649068 C6.9253289,13.7705445 6.9253289,14.2275592 7.21191263,14.5086882 C7.48967839,14.781167 7.93351575,14.7840504 8.22156913,14.5274301 L14,10 L14,22.2463379 C14,22.6442435 14.5943738,23.0003052 15,23.0003052 C15.4070959,23.0003052 16.0122579,22.6442435 16.0122579,22.2463379 L16.0122579,10 L21.7709967,14.5241789 C22.0649287,14.7750325 22.5072964,14.7721491 22.7850622,14.4996703 C23.0716459,14.2185413 23.0716459,13.7615265 22.7850622,13.4803976 C22.7762442,13.4717475 15.5110224,6.1820193 15.5110224,6.1820193 Z"/>
  </g>
</svg>
