<svg xmlns="http://www.w3.org/2000/svg" width="30" height="30" viewBox="0 0 30 30">
  <g fill="none" fill-rule="evenodd">
    <circle cx="15" cy="15" r="15" fill="#444" />
    <path fill="#FFF" d="M14,10 L14,8 L11,8 C10.4477153,8 10,7.55228475 10,7 C10,6.44771525 10.4477153,6 11,6 L19,6 C19.5522847,6 20,6.44771525 20,7 C20,7.55228475 19.5522847,8 19,8 L16,8 L16,10 L20,10 C21.1045695,10 22,10.8954305 22,12 L22,14 L22,16 C22.5522847,16 23,16.4477153 23,17 C23,17.5522847 22.5522847,18 22,18 L18,18 C17.4477153,18 17,17.5522847 17,17 C17,16.4477153 17.4477153,16 18,16 L18,14 L9,14 L9,10 L14,10 Z M6,7 L8,7 L8,17 L6,17 L6,7 Z M20,25 C19.6404494,25 19.307116,24.9062958 19,24.7188873 C18.692884,24.5314788 18.4494382,24.2776964 18.2696629,23.9575403 C18.0898876,23.6373842 18,23.2898975 18,22.9150805 C18,22.6105417 18.0674157,22.3099072 18.2022472,22.0131772 C18.2846441,21.8335774 18.4438202,21.568082 18.6797753,21.2166911 C18.9157303,20.8653002 19.0936329,20.5841874 19.2134831,20.3733529 C19.4082396,20.021962 19.5580525,19.6510493 19.6629213,19.260615 C19.7003745,19.1512934 19.7659177,19.0751587 19.8595506,19.0322109 C19.9531835,18.989263 20.0486891,18.989263 20.1460674,19.0322109 C20.2434458,19.0751587 20.307116,19.1512934 20.3370787,19.260615 C20.4494382,19.6510493 20.5992509,20.0258663 20.7865169,20.3850659 C20.9063671,20.5959005 21.0842697,20.875061 21.3202247,21.2225476 C21.5561798,21.5700342 21.7153559,21.8335774 21.7977528,22.0131772 C21.9325843,22.3020987 22,22.602733 22,22.9150805 C22,23.2898975 21.9101124,23.6373842 21.7303371,23.9575403 C21.5505618,24.2776964 21.307116,24.5314788 21,24.7188873 C20.692884,24.9062958 20.3595506,25 20,25 Z"/>
  </g>
</svg>
