<svg xmlns="http://www.w3.org/2000/svg" width="30" height="30" viewBox="0 0 30 30">
  <g fill="none" fill-rule="evenodd">
    <circle cx="15" cy="15" r="15" fill="#444" />
    <path fill="#FFF" d="M24.9343409,19.8977127 C25.0072955,20.0416345 25.0194545,20.1915533 24.9708182,20.3474685 C24.922182,20.5033837 24.8249089,20.617322 24.6789996,20.689283 L22.307973,21.8766384 C22.0161543,22.0205603 21.7121767,22.0385505 21.3960397,21.9306091 C21.0799026,21.8226677 20.8488797,21.6247751 20.7029704,21.3369314 L18.338623,16.0643311 L13.2317965,16.0643311 C12.9399779,16.0643311 12.6846366,15.968383 12.4657726,15.7764873 C12.2469086,15.5845917 12.1131582,15.356715 12.0645219,15.0928584 L11,7.30454898 C11,6.65690056 11.2431824,6.10520024 11.7295466,5.64944747 C12.2159109,5.19369469 12.7873893,4.97781189 13.4439813,5.00179905 C14.051937,5.02578621 14.5686988,5.25366232 14.9942679,5.68542794 C15.4198369,6.11719355 15.6447801,6.6329134 15.6690985,7.23258805 C15.6934169,7.83226269 15.5110303,8.35397947 15.1219385,8.79773839 C14.7328468,9.24149731 14.2464826,9.49935751 13.6628452,9.57131845 L13.9693535,11.0057334 L18.7114066,11.0057334 C18.8816344,11.0057334 19.021464,11.0597041 19.130896,11.1676455 C19.2403279,11.2755869 19.2950439,11.4135119 19.2950439,11.5814209 L19.1709224,12.4857363 C19.1709224,12.6536454 19.1162064,12.7915703 19.0067744,12.8995117 C18.8973424,13.0074531 18.7575128,13.0614238 18.5872851,13.0614238 L14.1735279,13.0614238 L14.2727607,14.0008545 L19.0877686,14.0008545 C19.3066325,14.0008545 19.5133376,14.0608221 19.7078832,14.1807568 C19.9024288,14.3006915 20.0483381,14.4566073 20.1456112,14.6485029 L22.307973,19.2860447 L23.6576343,18.6024158 C23.8035436,18.5544421 23.9494529,18.5544421 24.0953622,18.6024158 C24.2412716,18.6503896 24.3507036,18.7463377 24.4236582,18.8902596 C24.4236582,18.8902596 24.5938858,19.2260773 24.9343409,19.8977127 Z M17.0683594,16.9973145 L18.015625,19.0368652 C17.5171087,20.1460096 16.735905,21.2890857 15.7032641,21.9734513 C14.6706231,22.6578169 13.5252224,23 12.2670623,23 C11.1275964,23 10.0771513,22.722714 9.115727,22.1681416 C8.15430267,21.6135691 7.39465893,20.8584071 6.83679525,19.9026549 C6.27893157,18.9469027 6,17.9026549 6,16.7699115 C6,15.4719762 6.36201799,14.2979353 7.08605341,13.2477876 C7.81008884,12.1976399 8.88397941,11.4705946 10.0709229,11.0222168 L10.5250168,13.3737793 C9.93154482,13.7277616 9.19881288,14.1681416 8.83086053,14.7699115 C8.46290819,15.3716814 8.27893175,16.0324486 8.27893175,16.7522124 C8.27893175,17.4719762 8.45697329,18.1386432 8.81305638,18.7522124 C9.16913947,19.3657815 9.65578653,19.8495575 10.272997,20.2035398 C10.8902075,20.5575221 11.5548961,20.7345133 12.2670623,20.7345133 C13.264095,20.7345133 14.1364985,20.4100293 14.884273,19.7610619 C15.6320475,19.1120946 16.0713267,17.9648659 16.21376,16.9973145 L17.0683594,16.9973145 Z"/>
  </g>
</svg>
