<svg xmlns="http://www.w3.org/2000/svg" width="30" height="30" viewBox="0 0 30 30">
  <g fill="none" fill-rule="evenodd">
    <circle cx="15" cy="15" r="15" fill="#444" />
    <path fill="#FFF" d="M14.171875,14.6291793 C14.171875,14.8949197 14.0833332,15.1163701 13.90625,15.2935302 C13.7291668,15.4706902 13.5078125,15.5592705 13.2421875,15.5592705 C12.9765625,15.5592705 12.7552082,15.4706902 12.578125,15.2935302 C12.4010418,15.1163701 12.3125,14.8949197 12.3125,14.6291793 C12.3125,13.8983934 12.572591,13.2727965 13.0927734,12.7523882 C13.6129559,12.2319799 14.2382812,11.971776 14.96875,11.971776 C15.6992188,11.971776 16.3245441,12.2319799 16.8447266,12.7523882 C17.364909,13.2727965 17.625,13.8983934 17.625,14.6291793 C17.625,14.8949197 17.5364582,15.1163701 17.359375,15.2935302 C17.1822918,15.4706902 16.9609375,15.5592705 16.6953125,15.5592705 C16.4296875,15.5592705 16.2083332,15.4706902 16.03125,15.2935302 C15.8541668,15.1163701 15.765625,14.905992 15.765625,14.6623969 C15.765625,14.4188017 15.6881512,14.2194965 15.5332031,14.0644811 C15.378255,13.9094658 15.1901043,13.8319583 14.96875,13.8319583 C14.7473957,13.8319583 14.559245,13.9094658 14.4042969,14.0644811 C14.2493488,14.2194965 14.171875,14.4077289 14.171875,14.6291793 Z M14.96875,8.78289189 C16.03125,8.78289189 17.0107422,9.0430958 17.9072266,9.56350414 C18.8037109,10.0839125 19.5120441,10.7925532 20.0322266,11.6894268 C20.552409,12.5863005 20.8125,13.566218 20.8125,14.6291793 C20.8125,15.5149806 20.6243488,16.2789841 20.2480469,16.9211898 C20.0488281,17.2976551 19.6946613,17.740556 19.1855469,18.2498914 C18.9199219,18.5156318 18.7428387,18.7038647 18.6542969,18.8145897 C18.4993488,19.0360401 18.421875,19.2353454 18.421875,19.4125054 C18.421875,20.0547111 18.2613934,20.6526268 17.9404297,21.2062527 C17.619466,21.7598786 17.1822918,22.1972426 16.6289063,22.5183456 C16.0755207,22.8394487 15.4778644,23 14.8359375,23 C14.5703125,23 14.3489582,22.9114197 14.171875,22.7342597 C13.9947918,22.5570996 13.90625,22.3356492 13.90625,22.0699088 C13.90625,21.8041685 13.9947918,21.582718 14.171875,21.405558 C14.3489582,21.2283979 14.5703125,21.1398176 14.8359375,21.1398176 C15.3229168,21.1398176 15.7324219,20.9737299 16.0644531,20.6415545 C16.3964844,20.3093791 16.5625,19.8996962 16.5625,19.4125054 C16.5625,18.8588796 16.684245,18.3827616 16.9277344,17.9841511 C17.0826825,17.740556 17.359375,17.4249893 17.7578125,17.0374512 C18.15625,16.649913 18.4329425,16.3343463 18.5878906,16.0907512 C18.83138,15.6699955 18.953125,15.1828052 18.953125,14.6291793 C18.953125,13.8983934 18.7760418,13.2285061 18.421875,12.619518 C18.0677082,12.0105299 17.5862629,11.5288756 16.9775391,11.1745549 C16.3688153,10.8202343 15.6992188,10.6430743 14.96875,10.6430743 C14.2382813,10.6430743 13.5686847,10.8202343 12.9599609,11.1745549 C12.3512371,11.5288756 11.8697918,12.0105299 11.515625,12.619518 C11.1614582,13.2285061 10.984375,13.8983934 10.984375,14.6291793 C10.984375,14.8949197 10.8958332,15.1163701 10.71875,15.2935302 C10.5416668,15.4706902 10.3203125,15.5592705 10.0546875,15.5592705 C9.7890625,15.5592705 9.56770816,15.4706902 9.390625,15.2935302 C9.21354184,15.1163701 9.125,14.8949197 9.125,14.6291793 C9.125,13.566218 9.38509098,12.5863005 9.90527344,11.6894268 C10.4254559,10.7925532 11.1337891,10.0839125 12.0302734,9.56350414 C12.9267578,9.0430958 13.90625,8.78289189 14.96875,8.78289189 Z M12.3125,16.6222319 C12.6002606,16.6222319 12.849284,16.7274209 13.0595703,16.9377985 C13.2698566,17.1481761 13.375,17.3973077 13.375,17.6851932 C13.375,17.9730788 13.2698566,18.2222103 13.0595703,18.4325879 C12.849284,18.6429655 12.6002606,18.7481546 12.3125,18.7481546 C12.0247394,18.7481546 11.775716,18.6429655 11.5654297,18.4325879 C11.3551434,18.2222103 11.25,17.9730788 11.25,17.6851932 C11.25,17.3973077 11.3551434,17.1481761 11.5654297,16.9377985 C11.775716,16.7274209 12.0247394,16.6222319 12.3125,16.6222319 Z M8.0625,20.8740773 C8.35026059,20.8740773 8.59928402,20.9792663 8.80957031,21.1896439 C9.0198566,21.4000215 9.125,21.6491531 9.125,21.9370386 C9.125,22.2249242 9.0198566,22.4740557 8.80957031,22.6844333 C8.59928402,22.8948109 8.35026059,23 8.0625,23 C7.77473941,23 7.52571598,22.8948109 7.31542969,22.6844333 C7.1051434,22.4740557 7,22.2249242 7,21.9370386 C7,21.6491531 7.1051434,21.4000215 7.31542969,21.1896439 C7.52571598,20.9792663 7.77473941,20.8740773 8.0625,20.8740773 Z M24,14.6291793 C24,14.8949197 23.9114582,15.1163701 23.734375,15.2935302 C23.5572918,15.4706902 23.3359375,15.5592705 23.0703125,15.5592705 C22.8046875,15.5592705 22.5833332,15.4706902 22.40625,15.2935302 C22.2291668,15.1163701 22.140625,14.8949197 22.140625,14.6291793 L22.140625,14.4963092 C22.1184894,12.9904474 21.6591797,11.6229918 20.7626953,10.3939427 C19.8662109,9.16489363 18.7096356,8.30677395 17.2929688,7.81958316 C17.0494793,7.73100288 16.8723957,7.5704516 16.7617188,7.3379288 C16.6510418,7.10540601 16.6344403,6.86734678 16.7119141,6.62375164 C16.7893879,6.3801565 16.9443359,6.20299594 17.1767578,6.09227096 C17.4091797,5.98154599 17.6471356,5.97047314 17.890625,6.05905342 C19.0859375,6.45766393 20.13737,7.07772489 21.0449219,7.91923579 C21.9524738,8.76074669 22.666341,9.75173704 23.1865234,10.8922058 C23.7067059,12.0326746 23.9778644,13.2229702 24,14.4630916 L24,14.6291793 Z M12.0800781,20.5751194 L10.9511719,21.7045158 L8.29492188,19.0471125 L9.42382812,17.917716 L12.0800781,20.5751194 Z"/>
  </g>
</svg>
