<svg height="30" viewBox="0 0 30 30" width="30" xmlns="http://www.w3.org/2000/svg"><g fill="none" fill-rule="evenodd"><circle cx="15" cy="15" fill="#444" r="15"></circle><g fill="#fff"><path d="m15 15s3.7612489 1.400703 3.9892033 3.7746082l.0107967.2253918v3h1v2h-10v-2h1v-3c0-2.5103852 4-4 4-4zm0 1c-2 1.0702277-3 2.0702277-3 3v2h6v-2l-.0056711-.1216729c-.0831758-.8951887-1.0812854-1.854631-2.9943289-2.8783271z"></path><path d="m20 6v2h-1v3l-.0096093.2150674c-.2156968 2.4355492-3.9903907 4.7849326-3.9903907 4.7849326s-4-2.4896148-4-5v-3h-1v-2zm-5 4.8561798c-1.6568542 0-3-1.92640459-3 0 0 1.2842698 1 2.6655432 3 4.1438202 2-1.478277 3-2.8595504 3-4.1438202 0-1.92640459-1.3431458 0-3 0z"></path></g></g></svg>