<svg xmlns="http://www.w3.org/2000/svg" width="17" height="17" viewBox="0 0 17 17" class="mrm align-top" data-qa="phone_icon">
  <path fill="white" fill-rule="evenodd" d="M4.19220214e-13,3.41126988 C4.19220214e-13,1.2164871 1.96065116,-8.8817842e-15 3.58942232,-8.8817842e-15 C4.67617924,-8.8817842e-15 5.39160098,0.923624349 7.3673685,4.25626873 C7.68289966,4.78849387 7.52516335,5.12087492 6.87168444,6.03836924 C6.84042514,6.08227465 6.84042514,6.08227465 6.80977508,6.12553992 C6.50990666,6.54973102 6.41650487,6.76377203 6.43343775,6.80121675 C6.99204734,8.03650426 8.62035689,9.68028872 9.99895436,10.5445081 C10.1403636,10.6331551 10.2276568,10.6090276 10.5186673,10.3791404 C10.5591793,10.3471374 10.5954826,10.3176273 10.6788383,10.2494133 C11.2623162,9.77300582 11.6213158,9.59498787 12.1771217,9.70437272 C12.5231041,9.77246345 12.8886026,9.90456228 13.2732635,10.0927505 C13.7593139,10.3305417 14.2670311,10.6531868 14.7887284,11.0413323 C15.3711293,11.4746416 15.7174596,11.7756087 16.3076472,12.3185066 C17.2659663,13.2000389 17.1858478,14.3155789 16.375662,15.3369022 C15.799073,16.0637523 14.8387236,16.7258888 14.209431,16.8760683 C11.8875818,17.4301732 9.21127064,16.1514401 5.47339371,12.7667149 C1.9460225,9.57260707 4.19220214e-13,6.12982303 4.19220214e-13,3.41126988 Z M1,3.41126988 C1,5.80567026 2.80778048,9.00388497 6.14461628,12.0254591 C9.66009992,15.2088025 12.067644,16.3591195 13.9773015,15.9033834 C14.3750035,15.8084725 15.1478449,15.2756181 15.5922281,14.715427 C16.1092044,14.0637247 16.1475393,13.5299649 15.6306412,13.0544841 C15.065045,12.5342072 14.7380249,12.2500211 14.1918109,11.843635 C13.7157719,11.4894594 13.2579269,11.1985072 12.8338049,10.9910134 C12.5219761,10.8384569 12.2362613,10.7351936 11.9840217,10.6855518 C11.823628,10.6539857 11.6730011,10.7286774 11.3112937,11.0240101 C11.2277834,11.0923742 11.1854682,11.1267712 11.1385476,11.1638367 C10.5530991,11.6263188 10.0595421,11.7627363 9.4678086,11.3917886 C7.93613799,10.4316102 6.17255454,8.65126626 5.52227141,7.21325545 C5.28985653,6.69930222 5.46779712,6.29153076 5.99320592,5.5482923 C6.02535648,5.50290923 6.02535648,5.50290923 6.05716476,5.4582333 C6.40691141,4.96718369 6.50445286,4.76164492 6.50717515,4.76623676 C4.83490898,1.94552613 4.10252254,1 3.58942232,1 C3.25099991,1 2.59370748,1.18473197 2.08842081,1.49823736 C1.39361855,1.92932781 1,2.54797925 1,3.41126988 Z"></path>
</svg>