<svg xmlns="http://www.w3.org/2000/svg" width="18" height="19" viewBox="0 0 18 19" class="align-top mrm" data-qa="question-mark_icon">
  <path fill="white" fill-rule="evenodd" d="M9,18.3 C4.29997597,18.3 0.5,14.3100252 0.5,9.4 C0.5,4.48997477 4.29997597,0.5 9,0.5 C13.700024,0.5 17.5,4.48997477 17.5,9.4 C17.5,14.3100252 13.700024,18.3 9,18.3 Z M9,17.3 C13.136532,17.3 16.5,13.7683586 16.5,9.4 C16.5,5.03164144 13.136532,1.5 9,1.5 C4.86346803,1.5 1.5,5.03164144 1.5,9.4 C1.5,13.7683586 4.86346803,17.3 9,17.3 Z M9.83853914,10.9665736 L7.90181138,10.9665736 L7.90181138,8.46931228 C8.48548276,8.605033 9.20180673,8.53717264 9.59976449,8.18429876 C9.83853914,7.9671456 9.99772225,7.6278438 9.99772225,7.24782577 C9.99772225,6.97638433 9.90486543,6.73208703 9.74568233,6.55565009 C9.54670345,6.33849693 9.29466354,6.29778071 9.10894992,6.29778071 C8.76405319,6.29778071 8.55180905,6.43350144 8.43242173,6.55565009 C8.28650388,6.71851495 8.19364707,7.04424469 8.20691233,7.31568613 L6.1640625,7.31568613 C6.17732776,6.48778973 6.52222448,5.83633026 6.89365172,5.44274016 C7.22528319,5.08986628 7.87528086,4.61484375 9.0824194,4.61484375 C10.1171096,4.61484375 10.8201683,4.9812897 11.2711871,5.42916809 C11.8017974,5.95847891 12.0140416,6.65065459 12.0140416,7.30211406 C12.0140416,8.04857804 11.7089406,8.63217715 11.3507786,9.02576724 C11.0854735,9.32435283 10.5946589,9.71794293 9.83853914,9.82651951 L9.83853914,10.9665736 Z M7.71609776,12.8395196 C7.71609776,12.1473439 8.24670811,11.604461 8.9232363,11.604461 C9.59976449,11.604461 10.1303748,12.1473439 10.1303748,12.8395196 C10.1303748,13.5316952 9.59976449,14.0745781 8.9232363,14.0745781 C8.24670811,14.0745781 7.71609776,13.5316952 7.71609776,12.8395196 Z"></path>
</svg>