<svg xmlns="http://www.w3.org/2000/svg" width="30" height="30" viewBox="0 0 30 30">
  <g fill="none" fill-rule="evenodd">
    <circle cx="15" cy="15" r="15" fill="#444" />
    <path fill="#FFF" d="M15,24 C13.9213483,24 12.9213481,23.7188873 12,23.1566618 C11.0786519,22.5944363 10.3483146,21.8330891 9.80898876,20.8726208 C9.26966292,19.9121525 9,18.8696926 9,17.7452416 C9,16.8316252 9.20224719,15.9297217 9.60674157,15.0395315 C9.85393241,14.5007323 10.3314607,13.7042461 11.0393258,12.6500733 C11.747191,11.5959005 12.2808987,10.7525623 12.6404494,10.1200587 C13.2247189,9.06588591 13.6741575,7.95314782 13.988764,6.78184493 C14.1011234,6.45388025 14.297753,6.22547615 14.5786517,6.09663264 C14.8595504,5.96778912 15.1460672,5.96778912 15.4382022,6.09663264 C15.7303373,6.22547615 15.9213481,6.45388025 16.011236,6.78184493 C16.3483146,7.95314782 16.7977526,9.07759876 17.3595506,10.1551978 C17.7191013,10.7877014 18.252809,11.6251829 18.9606742,12.6676428 C19.6685393,13.7101027 20.1460676,14.5007323 20.3932584,15.0395315 C20.7977528,15.906296 21,16.808199 21,17.7452416 C21,18.8696926 20.7303371,19.9121525 20.1910112,20.8726208 C19.6516854,21.8330891 18.9213481,22.5944363 18,23.1566618 C17.0786519,23.7188873 16.0786517,24 15,24 Z M13.5505618,17.9560762 C13.5280897,17.8623718 13.4719103,17.8155198 13.3820225,17.8155198 C13.2921347,17.8155198 13.2359552,17.8623718 13.2134831,17.9560762 C13.1011238,18.2840409 12.9101124,18.6471452 12.6404494,19.045388 C12.505618,19.2562226 12.4157302,19.4084918 12.3707865,19.5021962 C12.3033708,19.6661788 12.2696629,19.8418743 12.2696629,20.0292826 C12.2696629,20.3338216 12.3764047,20.6032209 12.5898876,20.8374817 C12.8033706,21.0717425 13.0674159,21.1888726 13.3820225,21.1888726 C13.696629,21.1888726 13.9606743,21.0717425 14.1741573,20.8374817 C14.3876403,20.6032209 14.494382,20.3338216 14.494382,20.0292826 C14.494382,19.8418743 14.4606742,19.6661788 14.3932584,19.5021962 C14.3483148,19.4084918 14.258427,19.2562226 14.1235955,19.045388 C13.8539326,18.6471452 13.6629212,18.2840409 13.5505618,17.9560762 Z"/>
  </g>
</svg>
